<svg xmlns="http://www.w3.org/2000/svg" version="1.1" xmlns:xlink="http://www.w3.org/1999/xlink" width="1000" height="1000"><g clip-path="url(#SvgjsClipPath1415)"><rect width="1000" height="1000" fill="#ffffff"></rect><g transform="matrix(3.587443946188341,0,0,3.587443946188341,324.2152466367713,100)"><svg xmlns="http://www.w3.org/2000/svg" version="1.1" xmlns:xlink="http://www.w3.org/1999/xlink" width="98" height="223"><svg width="98" height="223" viewBox="0 0 98 223" fill="none" xmlns="http://www.w3.org/2000/svg">
<g clip-path="url(#clip0_2082_63)">
<path fill-rule="evenodd" clip-rule="evenodd" d="M-0.0478516 -0.0722656C32.6188 -0.0722656 65.2855 -0.0722656 97.9521 -0.0722656C97.9521 74.2611 97.9521 148.594 97.9521 222.928C65.2855 222.928 32.6188 222.928 -0.0478516 222.928C-0.0478516 148.594 -0.0478516 74.2611 -0.0478516 -0.0722656Z" fill="#FEFEFE"></path>
<path fill-rule="evenodd" clip-rule="evenodd" d="M47.5167 201.15C47.2614 201.15 47.0063 201.15 46.7511 201.15C46.7511 202.408 46.7511 203.666 46.7511 204.924C46.3367 205.674 45.874 206.352 45.3634 206.957C45.3171 207.095 45.3013 207.24 45.3155 207.393C45.1879 207.393 45.0603 207.393 44.9327 207.393C44.9484 207.002 44.9324 206.616 44.8849 206.231C44.4155 207.981 43.8733 209.673 43.2579 211.313C41.6238 214.123 39.5662 215.502 37.085 215.45C36.4933 215.298 35.9191 215.057 35.3624 214.724C35.0473 214.374 34.9356 213.914 35.0274 213.345C35.6175 211.748 36.2556 210.199 36.9415 208.699C38.1059 206.256 39.2702 203.811 40.4347 201.368C40.2133 201.272 39.99 201.199 39.7647 201.15C38.6711 173.466 37.5387 145.784 36.3673 118.105C36.3489 117.804 36.301 117.514 36.2237 117.234C35.5857 116.702 34.9477 116.17 34.3097 115.637C35.0448 107.632 35.635 99.5982 36.0802 91.5371C36.3791 82.8972 36.1877 74.2829 35.5059 65.6947C33.6484 82.272 32.7711 98.968 32.8741 115.783C32.6827 115.783 32.4913 115.783 32.2999 115.783C32.4112 117.233 32.6505 118.637 33.0177 119.993C33.5547 121.961 34.065 123.945 34.5489 125.945C34.6127 126.768 34.6127 127.591 34.5489 128.413C34.4935 128.862 34.3658 129.249 34.1661 129.575C33.315 127.671 32.6132 125.638 32.0606 123.477C31.7042 124.626 31.5766 125.836 31.6778 127.107C32.3983 129.708 33.0044 132.37 33.4962 135.092C33.5559 135.778 33.5239 136.455 33.4005 137.124C33.3193 137.469 33.1917 137.759 33.0177 137.995C30.6691 135.277 29.106 131.744 28.3282 127.397C27.8602 123.605 27.5891 119.782 27.5147 115.928C27.3872 115.928 27.2595 115.928 27.1319 115.928C27.105 103.72 27.3443 91.5242 27.8497 79.3418C28.5375 69.5699 29.4307 59.8427 30.5294 50.1602C30.7817 48.5192 31.4356 47.4303 32.4913 46.8936C34.6697 45.8738 36.8389 44.8092 38.9991 43.6996C40.025 43.139 41.0139 42.4614 41.9659 41.667C42.2334 41.4067 42.4727 41.0921 42.6837 40.7233C43.3457 39.3313 44.0794 38.0247 44.8849 36.8034C44.9644 35.345 44.9325 33.8932 44.7892 32.4479C43.0552 26.2648 42.3853 19.8283 42.7794 13.1387C43.2378 9.78334 44.4979 7.43622 46.5597 6.09735C48.8052 5.0108 50.9107 5.44635 52.8761 7.40399C54.6289 9.88479 55.4582 12.9578 55.3643 16.6231C55.2197 21.8093 54.5658 26.8423 53.4024 31.722C53.2991 32.0844 53.1714 32.4233 53.0196 32.7383C52.9239 33.9947 52.892 35.253 52.9239 36.513C53.9916 38.2729 55.0922 39.9909 56.2257 41.667C59.4342 43.9832 62.752 45.8706 66.1788 47.3291C66.7166 47.9174 67.0515 48.7159 67.1837 49.7246C68.3771 60.1711 69.3022 70.6725 69.9591 81.2292C70.0669 83.793 70.1626 86.3579 70.2462 88.9238C70.4095 97.9279 70.5531 106.929 70.6768 115.928C70.4854 115.928 70.294 115.928 70.1026 115.928C70.0724 119.484 69.865 123.016 69.4806 126.526C68.7777 131.195 67.1986 135.018 64.7433 137.995C64.531 137.789 64.3874 137.498 64.3126 137.124C64.1793 136.457 64.1474 135.78 64.2169 135.092C64.7017 132.547 65.2441 130.03 65.8438 127.542C66.0414 126.168 65.9935 124.813 65.7003 123.477C65.2522 125.104 64.7578 126.701 64.2169 128.268C64.0167 128.73 63.7934 129.166 63.547 129.575C63.0504 128.178 62.9865 126.727 63.3556 125.219C63.9805 122.714 64.5866 120.198 65.1739 117.67C65.2997 117.052 65.3794 116.423 65.4132 115.783C65.2218 115.783 65.0304 115.783 64.839 115.783C64.9773 99.0088 64.1 82.3612 62.2071 65.8399C61.5927 73.9474 61.4013 82.0776 61.6329 90.2305C62.027 98.6119 62.6172 106.96 63.4034 115.274C63.3715 115.444 63.3396 115.613 63.3077 115.783C62.7654 116.242 62.2231 116.702 61.6808 117.162C61.6146 117.317 61.5668 117.486 61.5372 117.67C60.3951 145.5 59.2307 173.327 58.044 201.15C57.812 201.105 57.5888 201.154 57.3741 201.295C59.128 204.971 60.8347 208.696 62.4942 212.474C62.7561 213.376 62.6764 214.174 62.255 214.869C60.4295 215.919 58.675 215.677 56.9913 214.144C55.82 213.22 54.9108 211.889 54.2638 210.151C53.8491 208.796 53.4343 207.44 53.0196 206.086C52.9721 206.421 52.9562 206.76 52.9718 207.102C52.7533 207.086 52.5619 206.966 52.3975 206.739C52.026 206.132 51.6272 205.575 51.2013 205.07C51.1534 203.764 51.1375 202.458 51.1534 201.15C50.8982 201.15 50.643 201.15 50.3878 201.15C50.8569 182.379 51.0324 163.603 50.9142 144.819C50.6765 137.012 50.3097 129.221 49.8136 121.445C49.2393 121.445 48.6651 121.445 48.0909 121.445C47.6516 129.856 47.3167 138.276 47.086 146.706C47.0958 164.857 47.2393 183.005 47.5167 201.15Z" fill="url(#paint0_linear_2082_63)"></path>
<path fill-rule="evenodd" clip-rule="evenodd" d="M47.8999 6.46013C51.0933 5.96779 53.2785 7.95195 54.4555 12.4126C55.0763 19.5155 54.4063 26.3391 52.4458 32.8833C51.8966 34.3939 51.147 35.628 50.1967 36.5855C49.0538 37.3231 48.001 37.0813 47.0385 35.8595C46.2972 34.8431 45.707 33.6574 45.268 32.3026C43.6178 26.2958 42.9479 20.053 43.2583 13.5741C43.8031 9.67457 45.3503 7.30326 47.8999 6.46013Z" fill="url(#paint1_linear_2082_63)"></path>
<path fill-rule="evenodd" clip-rule="evenodd" d="M52.3018 34.4805C52.4277 35.2809 52.4277 36.1036 52.3018 36.9486C51.4542 38.0167 50.5929 39.057 49.7178 40.07C49.4678 40.3442 49.1967 40.562 48.9043 40.7233C48.6756 40.6104 48.4682 40.4409 48.2823 40.2152C47.3731 39.1263 46.4639 38.0374 45.5547 36.9486C45.4909 36.1743 45.4909 35.3999 45.5547 34.6257C47.5927 38.6421 49.762 38.8358 52.0625 35.2064C52.1672 34.9773 52.247 34.7353 52.3018 34.4805Z" fill="#FAFAFA"></path>
<path fill-rule="evenodd" clip-rule="evenodd" d="M52.5889 37.5306C52.7697 37.5011 52.9133 37.5978 53.0195 37.8209C53.3335 38.5298 53.509 39.3041 53.5459 40.1438C53.3698 42.4728 53.1624 44.7958 52.9238 47.1126C51.8028 45.1208 50.6065 43.2092 49.335 41.3779C50.4782 40.1977 51.5628 38.9153 52.5889 37.5306Z" fill="#FCFCFC"></path>
<path fill-rule="evenodd" clip-rule="evenodd" d="M45.124 37.5293C46.2587 38.8011 47.3752 40.1077 48.4736 41.4492C47.2798 43.4278 46.1314 45.4603 45.0283 47.5469C44.6952 44.809 44.5198 42.0506 44.502 39.2715C44.6873 38.6597 44.8947 38.079 45.124 37.5293Z" fill="#FCFCFC"></path>
<path fill-rule="evenodd" clip-rule="evenodd" d="M51.0576 45.2246C51.836 46.0882 52.4102 47.177 52.7803 48.4912C52.3683 52.2944 51.8099 56.0449 51.1055 59.7428C50.8889 55.9611 50.5539 52.2106 50.1006 48.4912C50.4594 47.427 50.7784 46.3382 51.0576 45.2246Z" fill="#FBFBFB"></path>
<path fill-rule="evenodd" clip-rule="evenodd" d="M46.751 45.3691C47.2644 46.2713 47.6472 47.3117 47.8994 48.4906C47.4139 52.3608 47.0471 56.2565 46.7988 60.1777C46.1348 56.4876 45.5766 52.7612 45.124 48.9987C45.5959 47.7108 46.1383 46.5008 46.751 45.3691Z" fill="#FCFCFC"></path>
<path fill-rule="evenodd" clip-rule="evenodd" d="M47.5166 201.15C47.315 201.291 47.0916 201.339 46.8467 201.296C46.8779 202.533 46.846 203.742 46.751 204.925C46.751 203.666 46.751 202.409 46.751 201.15C47.0062 201.15 47.2614 201.15 47.5166 201.15Z" fill="#AFAFAF"></path>
<ellipse cx="1.5" cy="0.765324" rx="1.5" ry="0.765324" transform="matrix(0.983426 0.181309 0.172466 0.985016 44.8291 14.2285)" fill="url(#paint2_linear_2082_63)"></ellipse>
<ellipse cx="1.5" cy="0.765324" rx="1.5" ry="0.765324" transform="matrix(0.994706 -0.102758 -0.250029 0.968238 50.0723 14.7207)" fill="url(#paint3_linear_2082_63)"></ellipse>
</g>
<defs>
<linearGradient id="paint0_linear_2082_63" x1="48.9034" y1="5.51563" x2="48.9034" y2="215.509" gradientUnits="userSpaceOnUse">
<stop stop-color="#686868"></stop>
<stop offset="0.5" stop-color="#3C3C3C"></stop>
<stop offset="1" stop-color="#A6A6A6"></stop>
</linearGradient>
<linearGradient id="paint1_linear_2082_63" x1="48.932" y1="6.38672" x2="48.932" y2="37.0021" gradientUnits="userSpaceOnUse">
<stop stop-color="#B2B2B2"></stop>
<stop offset="1" stop-color="#5A5A5A"></stop>
</linearGradient>
<linearGradient id="paint2_linear_2082_63" x1="1.5" y1="0" x2="1.5" y2="1.53065" gradientUnits="userSpaceOnUse">
<stop stop-color="#686868"></stop>
<stop offset="1" stop-color="#999999"></stop>
</linearGradient>
<linearGradient id="paint3_linear_2082_63" x1="1.5" y1="0" x2="1.5" y2="1.53065" gradientUnits="userSpaceOnUse">
<stop stop-color="#686868"></stop>
<stop offset="1" stop-color="#939393"></stop>
</linearGradient>
<clipPath id="clip0_2082_63">
<rect width="98" height="223" fill="white"></rect>
</clipPath>
<clipPath id="SvgjsClipPath1415"><rect width="1000" height="1000" x="0" y="0" rx="400" ry="400"></rect></clipPath></defs>
</svg></svg></g></g></svg>