<svg width="1530" height="997" viewBox="0 0 1530 997" fill="none" xmlns="http://www.w3.org/2000/svg">
<g filter="url(#filter0_d_2036_155)">
<path d="M801.048 11C1192.62 11 1510.05 224.784 1510.05 488.5C1510.05 752.216 1192.62 966 801.048 966C409.478 966 92.0479 752.216 92.0479 488.5C92.0479 224.784 409.478 11 801.048 11Z" fill="white"/>
<path d="M801.048 11C1192.62 11 1510.05 224.784 1510.05 488.5C1510.05 752.216 1192.62 966 801.048 966C409.478 966 92.0479 752.216 92.0479 488.5C92.0479 224.784 409.478 11 801.048 11Z" stroke="transparent"/>
<path d="M71.7245 933.134C67.3248 935.855 62.1949 930.921 64.743 926.419L183.38 716.803C184.988 713.961 188.844 713.398 191.197 715.662L277.406 798.582C279.76 800.846 279.347 804.721 276.57 806.438L71.7245 933.134Z" fill="white"/>
</g>
<defs>
<filter id="filter0_d_2036_155" x="53.0635" y="0" width="1475.98" height="985" filterUnits="userSpaceOnUse" color-interpolation-filters="sRGB">
<feFlood flood-opacity="0" result="BackgroundImageFix"/>
<feColorMatrix in="SourceAlpha" type="matrix" values="0 0 0 0 0 0 0 0 0 0 0 0 0 0 0 0 0 0 127 0" result="hardAlpha"/>
<feOffset dx="4" dy="4"/>
<feGaussianBlur stdDeviation="7.5"/>
<feComposite in2="hardAlpha" operator="out"/>
<feColorMatrix type="matrix" values="0 0 0 0 0 0 0 0 0 0 0 0 0 0 0 0 0 0 0.25 0"/>
<feBlend mode="normal" in2="BackgroundImageFix" result="effect1_dropShadow_2036_155"/>
<feBlend mode="normal" in="SourceGraphic" in2="effect1_dropShadow_2036_155" result="shape"/>
</filter>
</defs>
</svg>

