<svg width="32" height="32" viewBox="0 0 32 32" fill="none" xmlns="http://www.w3.org/2000/svg">
<g clip-path="url(#clip0_2097_134)">
<path d="M13.3323 15.1109C13.1402 15.111 12.9533 15.0486 12.7998 14.9331C8.76695 11.9082 6.18562 6.742 6.22206 1.77134C6.22562 1.27978 6.58828 0.904672 7.11717 0.888672C7.2339 0.889486 7.34933 0.913285 7.45686 0.95871C7.5644 1.00413 7.66193 1.0703 7.74389 1.15341C7.82586 1.23653 7.89065 1.33498 7.93456 1.44314C7.97848 1.5513 8.00066 1.66705 7.99984 1.78378C7.96695 6.21045 10.2701 10.814 13.8665 13.5109C14.0158 13.6229 14.1261 13.779 14.1817 13.9572C14.2373 14.1353 14.2354 14.3265 14.1763 14.5035C14.1172 14.6805 14.0039 14.8345 13.8524 14.9435C13.7009 15.0525 13.5189 15.1111 13.3323 15.1109Z" fill="#212121"/>
<path d="M14.2227 16.8888C13.8875 16.8888 5.97999 16.8017 2.7391 9.23903C2.69115 9.13144 2.66505 9.01539 2.66234 8.89762C2.65963 8.77986 2.68036 8.66273 2.72331 8.55304C2.76627 8.44336 2.83059 8.3433 2.91255 8.2587C2.99451 8.17409 3.09247 8.10662 3.20074 8.0602C3.30901 8.01378 3.42542 7.98935 3.54321 7.98832C3.661 7.98728 3.77782 8.00967 3.88689 8.05419C3.99595 8.0987 4.09508 8.16444 4.17851 8.2476C4.26194 8.33076 4.32801 8.42967 4.37288 8.53859C7.15777 15.0364 13.9355 15.111 14.2227 15.111C14.4584 15.111 14.6845 15.2047 14.8512 15.3714C15.0179 15.5381 15.1115 15.7642 15.1115 15.9999C15.1115 16.2357 15.0179 16.4618 14.8512 16.6285C14.6845 16.7952 14.4584 16.8888 14.2227 16.8888Z" fill="#212121"/>
<path d="M3.5555 25.777C3.41463 25.777 3.27578 25.7434 3.15042 25.6792C3.02505 25.6149 2.91676 25.5218 2.83445 25.4074C2.75215 25.2931 2.69821 25.1608 2.67706 25.0216C2.65592 24.8823 2.66818 24.74 2.71284 24.6064C3.94661 20.905 6.9075 16.5584 14.0106 16.8801C14.1013 16.8846 14.1733 16.8881 14.2222 16.8881C14.4579 16.8881 14.684 16.9818 14.8507 17.1485C15.0174 17.3152 15.1111 17.5413 15.1111 17.777C15.1111 18.0128 15.0174 18.2389 14.8507 18.4056C14.684 18.5723 14.4579 18.6659 14.2222 18.6659C14.1546 18.6659 14.0559 18.6615 13.9306 18.6561C9.12084 18.4455 5.91195 20.6313 4.39906 25.169C4.27461 25.5415 3.92795 25.777 3.5555 25.777Z" fill="#212121"/>
<path d="M7.11155 31.9998C6.8758 31.9998 6.6497 31.9061 6.48301 31.7394C6.31631 31.5727 6.22266 31.3466 6.22266 31.1109C6.22266 27.1153 9.09199 19.8193 13.7649 17.0158C13.865 16.9557 13.9759 16.916 14.0914 16.8988C14.2068 16.8816 14.3246 16.8873 14.4378 16.9156C14.551 16.944 14.6576 16.9943 14.7514 17.0638C14.8452 17.1333 14.9244 17.2206 14.9844 17.3207C15.0445 17.4208 15.0842 17.5317 15.1014 17.6472C15.1186 17.7626 15.1129 17.8803 15.0846 17.9936C15.0563 18.1068 15.0059 18.2134 14.9364 18.3072C14.8669 18.401 14.7796 18.4802 14.6795 18.5402C10.6644 20.9491 8.00043 27.702 8.00043 31.1109C8.00043 31.3466 7.90678 31.5727 7.74008 31.7394C7.57339 31.9061 7.34729 31.9998 7.11155 31.9998ZM18.668 15.1109C18.4814 15.1111 18.2994 15.0525 18.1479 14.9435C17.9964 14.8345 17.8831 14.6805 17.824 14.5035C17.7649 14.3265 17.763 14.1353 17.8186 13.9572C17.8742 13.779 17.9845 13.6229 18.1338 13.5109C21.7302 10.8131 24.0333 6.21045 24.0004 1.78378C23.9988 1.54819 24.0907 1.32157 24.2561 1.15373C24.4214 0.985885 24.6466 0.890551 24.8822 0.888672H24.8893C25.124 0.888666 25.3492 0.981462 25.5157 1.14682C25.6822 1.31217 25.7766 1.53667 25.7782 1.77134C25.8155 6.74201 23.2333 11.9082 19.2004 14.9331C19.0404 15.0531 18.8538 15.1109 18.668 15.1109Z" fill="#212121"/>
<path d="M17.7776 16.8884C17.5418 16.8884 17.3157 16.7947 17.149 16.628C16.9823 16.4613 16.8887 16.2352 16.8887 15.9995C16.8887 15.7638 16.9823 15.5377 17.149 15.371C17.3157 15.2043 17.5418 15.1106 17.7776 15.1106C18.0647 15.1106 24.8424 15.0359 27.6273 8.53817C27.7202 8.32163 27.8953 8.15087 28.1141 8.06343C28.3329 7.976 28.5775 7.97906 28.794 8.07195C29.0105 8.16483 29.1813 8.33993 29.2687 8.55872C29.3562 8.77751 29.3531 9.02208 29.2602 9.23861C26.0193 16.8013 18.1127 16.8884 17.7776 16.8884Z" fill="#212121"/>
<path d="M28.4442 25.7769C28.2577 25.7768 28.0759 25.7181 27.9247 25.609C27.7734 25.4998 27.6604 25.3459 27.6016 25.1689C26.0887 20.6311 22.8967 18.4497 18.0691 18.656C17.9438 18.6613 17.8451 18.6657 17.7776 18.6657C17.5418 18.6657 17.3157 18.5721 17.149 18.4054C16.9823 18.2387 16.8887 18.0126 16.8887 17.7769C16.8887 17.5411 16.9823 17.315 17.149 17.1483C17.3157 16.9816 17.5418 16.888 17.7776 16.888C17.8264 16.888 17.8985 16.8844 17.9891 16.88C25.0816 16.56 28.054 20.9049 29.2869 24.6062C29.3316 24.7398 29.3438 24.8821 29.3227 25.0214C29.3015 25.1607 29.2476 25.2929 29.1653 25.4073C29.083 25.5216 28.9747 25.6147 28.8493 25.679C28.7239 25.7433 28.5851 25.7768 28.4442 25.7769Z" fill="#212121"/>
<path d="M24.8891 32.0002C24.6534 32.0002 24.4273 31.9066 24.2606 31.7399C24.0939 31.5732 24.0002 31.3471 24.0002 31.1113C24.0002 27.7025 21.3362 20.9496 17.3202 18.5398C17.2201 18.4797 17.1329 18.4005 17.0634 18.3068C16.9939 18.213 16.9435 18.1064 16.9152 17.9932C16.8869 17.8799 16.8812 17.7622 16.8984 17.6467C16.9155 17.5313 16.9553 17.4203 17.0153 17.3202C17.0754 17.2201 17.1546 17.1329 17.2484 17.0634C17.3422 16.9939 17.4487 16.9435 17.562 16.9152C17.6752 16.8869 17.7929 16.8812 17.9084 16.8984C18.0239 16.9155 18.1348 16.9553 18.2349 17.0153C22.9078 19.8198 25.778 27.1158 25.778 31.1113C25.778 31.3471 25.6844 31.5732 25.5177 31.7399C25.351 31.9066 25.1249 32.0002 24.8891 32.0002Z" fill="#212121"/>
<path d="M16.0003 28.4438C18.9458 28.4438 21.3337 25.7408 21.3337 22.4065C21.3337 19.0721 18.9458 16.3691 16.0003 16.3691C13.0548 16.3691 10.667 19.0721 10.667 22.4065C10.667 25.7408 13.0548 28.4438 16.0003 28.4438Z" fill="#212121"/>
<path d="M15.9999 20.444C17.9636 20.444 19.5554 18.0562 19.5554 15.1107C19.5554 12.1652 17.9636 9.77734 15.9999 9.77734C14.0362 9.77734 12.4443 12.1652 12.4443 15.1107C12.4443 18.0562 14.0362 20.444 15.9999 20.444Z" fill="#212121"/>
<path d="M14.2221 12.4444C14.1054 12.4446 13.9898 12.4216 13.8819 12.3769C13.7741 12.3322 13.6761 12.2667 13.5937 12.184C12.4443 11.0347 12.4443 9.84533 12.4443 8.88889C12.4443 8.65314 12.538 8.42705 12.7047 8.26035C12.8714 8.09365 13.0975 8 13.3332 8C13.569 8 13.7951 8.09365 13.9618 8.26035C14.1285 8.42705 14.2221 8.65314 14.2221 8.88889C14.2221 9.70667 14.2221 10.2987 14.8506 10.9271C14.9753 11.0513 15.0603 11.2097 15.0948 11.3822C15.1293 11.5548 15.1118 11.7337 15.0445 11.8962C14.9772 12.0588 14.863 12.1977 14.7166 12.2953C14.5702 12.3929 14.3981 12.4448 14.2221 12.4444ZM17.7777 12.4444C17.6017 12.4448 17.4296 12.3929 17.2832 12.2953C17.1367 12.1977 17.0226 12.0588 16.9553 11.8962C16.888 11.7337 16.8704 11.5548 16.905 11.3822C16.9395 11.2097 17.0245 11.0513 17.1492 10.9271C17.7777 10.2987 17.7777 9.70667 17.7777 8.88889C17.7777 8.65314 17.8713 8.42705 18.038 8.26035C18.2047 8.09365 18.4308 8 18.6666 8C18.9023 8 19.1284 8.09365 19.2951 8.26035C19.4618 8.42705 19.5554 8.65314 19.5554 8.88889C19.5554 9.84533 19.5554 11.0347 18.4061 12.184C18.3237 12.2667 18.2257 12.3322 18.1179 12.3769C18.01 12.4216 17.8944 12.4446 17.7777 12.4444Z" fill="#212121"/>
<path d="M15 12C15.2761 12 15.5 11.7761 15.5 11.5C15.5 11.2239 15.2761 11 15 11C14.7239 11 14.5 11.2239 14.5 11.5C14.5 11.7761 14.7239 12 15 12Z" fill="white"/>
<path d="M17 12C17.2761 12 17.5 11.7761 17.5 11.5C17.5 11.2239 17.2761 11 17 11C16.7239 11 16.5 11.2239 16.5 11.5C16.5 11.7761 16.7239 12 17 12Z" fill="white"/>
</g>
<defs>
<clipPath id="clip0_2097_134">
<rect width="32" height="32" fill="white"/>
</clipPath>
</defs>
</svg>
