<svg width="10" height="10" viewBox="0 0 10 10" fill="none" xmlns="http://www.w3.org/2000/svg">
<circle cx="5" cy="5" r="5" transform="matrix(1 0 0 -1 0 10)" fill="white"/>
<path d="M5.34278 5.04844C5.84224 5.26717 5.6924 6.03273 5.34278 6.36083C4.79338 6.85297 3.99426 6.57956 3.64464 5.92336C2.89545 4.61097 4.09415 3.18922 5.34278 3.2439C6.69131 3.35327 7.49044 4.82971 7.19077 6.19678C6.84115 7.83726 5.24289 8.65751 3.84442 8.16536C2.54584 7.7279 1.74671 6.25146 1.8466 4.77502C1.99643 3.13454 3.14518 1.82215 4.5936 1.54873C5.99208 1.27532 7.4405 1.98619 8.18968 3.29858C8.5393 3.9001 8.78903 4.61097 8.78903 5.37653C8.78903 5.64995 9.03875 5.92336 9.33843 5.86868C9.73799 5.86868 9.83788 5.43122 9.78794 5.10312C9.58816 2.53302 7.54039 0.40039 5.143 0.40039C2.19622 0.40039 -0.101279 3.79073 1.14736 6.85297C2.396 9.80585 6.29175 10.4074 7.79012 7.50917C8.5393 6.14209 8.38946 4.33756 7.34061 3.18922C6.3417 2.09556 4.69349 1.87683 3.4948 2.80644C2.396 3.68136 2.04638 5.4859 2.9454 6.74361C3.79447 8.00131 5.6924 8.056 6.44159 6.63424C6.99099 5.59527 6.44159 3.79073 5.19295 3.95478C4.39382 3.95478 3.69458 4.88439 4.14409 5.70463C4.44377 6.19678 5.09306 6.03273 5.29284 5.64995C5.39273 5.21249 5.34278 5.04844 5.34278 5.04844Z" fill="black"/>
</svg>
