<svg width="10" height="10" viewBox="0 0 10 10" fill="none" xmlns="http://www.w3.org/2000/svg">
<circle cx="4.99981" cy="5.00117" r="5" transform="rotate(-179.969 4.99981 5.00117)" fill="white"/>
<path d="M4.65667 5.04986C4.15709 5.26832 4.30651 6.03396 4.65595 6.36225C5.20508 6.85469 6.00436 6.58172 6.35434 5.92571C7.10424 4.61373 5.90632 3.19132 4.65765 3.24532C3.30906 3.35395 2.50913 4.82995 2.80805 6.19719C3.15678 7.83787 4.75458 8.65898 6.15333 8.1676C7.45215 7.73085 8.25209 6.25485 8.153 4.77836C8.00406 3.13779 6.85603 1.82477 5.40776 1.55056C4.00944 1.27638 2.56063 1.98647 1.81073 3.29845C1.46078 3.89977 1.21066 4.61051 1.21025 5.37607C1.2101 5.64949 0.960219 5.92276 0.660575 5.86792C0.261011 5.8677 0.16136 5.43018 0.211485 5.10211C0.412673 2.53212 2.46161 0.400611 4.85899 0.401922C7.80578 0.403534 10.1014 3.79513 8.8511 6.85669C7.60085 9.80888 3.70477 10.4083 2.20799 7.50925C1.45956 6.14177 1.61038 4.33731 2.65986 3.18955C3.65937 2.09644 5.30769 1.87861 6.50588 2.80887C7.6042 3.6844 7.95283 5.48913 7.05312 6.74634C6.20336 8.00358 4.3054 8.05723 3.557 6.63506C3.00817 5.59579 3.55855 3.79155 4.8071 3.95628C5.60623 3.95672 6.30496 4.88671 5.855 5.70671C5.55506 6.19869 4.90586 6.03429 4.70628 5.6514C4.60663 5.21388 4.65667 5.04986 4.65667 5.04986Z" fill="black"/>
</svg>
