<svg width="149" height="84" viewBox="0 0 149 84" fill="none" xmlns="http://www.w3.org/2000/svg">
<path d="M0 25.5781L137.644 0.00024277L148.423 58.0072L15.6951 82.6716C12.9801 83.1761 10.3703 81.3842 9.86575 78.6692L0 25.5781Z" fill="#EAFF00"/>
<path d="M48.9337 39.1243L49.2468 39.1231L51.912 53.4655L47.7964 54.2303L44.4201 36.0614L50.036 35.0178L60.06 47.9643L59.7675 48.0756L57.0971 33.7056L61.2127 32.9409L64.589 51.1098L58.9456 52.1585L48.9337 39.1243ZM62.9375 32.6203L74.5409 30.4641L75.211 34.0704L67.7094 35.4644L68.3975 39.167L75.8302 37.7858L76.4799 41.2819L69.0472 42.6631L69.7454 46.4208L77.247 45.0268L77.9172 48.6331L66.3138 50.7893L62.9375 32.6203ZM98.2521 44.8543L93.3107 45.7725L87.8717 33.6685L88.615 33.5304L87.8875 46.7803L82.9186 47.7037L75.3992 30.3046L80.1204 29.4273L84.6774 41.7664L84.6224 41.7766L85.6674 28.3965L88.7644 27.821L94.5602 39.9299L94.5052 39.9401L94.3252 26.7877L99.0464 25.9103L98.2521 44.8543Z" fill="black"/>
</svg>
