<svg width="400" height="163" viewBox="0 0 400 163" fill="none" xmlns="http://www.w3.org/2000/svg">
<ellipse cx="199.922" cy="81.1916" rx="205.5" ry="63.5" transform="rotate(15 199.922 81.1916)" fill="#FF00D5"/>
<path d="M149.408 57.8385L143.931 56.371L145.152 51.8157L161.287 56.139L160.066 60.6943L154.607 59.2315L149.678 77.6266L144.479 76.2336L149.408 57.8385ZM163.063 68.8955C162.712 70.2052 162.661 71.4648 162.908 72.674C163.17 73.8748 163.693 74.9155 164.475 75.7961C165.27 76.6798 166.299 77.2909 167.562 77.6294C168.825 77.968 170.016 77.9516 171.134 77.5804C172.264 77.2122 173.237 76.5722 174.053 75.6603C174.883 74.7399 175.474 73.6248 175.825 72.315C176.176 71.0052 176.22 69.7499 175.958 68.5491C175.708 67.3515 175.185 66.3108 174.391 65.4271C173.611 64.5349 172.59 63.9195 171.326 63.581C170.063 63.2425 168.865 63.2631 167.732 63.6428C166.614 64.014 165.641 64.6541 164.813 65.5629C163.998 66.4748 163.414 67.5857 163.063 68.8955ZM157.656 67.4466C158.103 65.7775 158.815 64.3035 159.791 63.0246C160.771 61.7341 161.938 60.6927 163.293 59.9005C164.648 59.1082 166.125 58.6033 167.724 58.3857C169.323 58.1681 170.957 58.2829 172.626 58.7301C174.318 59.1836 175.797 59.9027 177.061 60.8874C178.337 61.8753 179.357 63.0495 180.123 64.4101C180.901 65.7738 181.385 67.2578 181.577 68.862C181.783 70.4577 181.662 72.0901 181.215 73.7592C180.765 75.4399 180.061 76.9286 179.105 78.2253C178.152 79.5104 177.002 80.5564 175.655 81.3634C174.312 82.1587 172.84 82.6652 171.242 82.8828C169.643 83.1004 167.98 82.9778 166.253 82.5151C164.491 82.043 162.966 81.3115 161.679 80.3205C160.403 79.3326 159.388 78.16 158.634 76.8025C157.883 75.4334 157.416 73.9541 157.233 72.3646C157.065 70.7666 157.206 69.1273 157.656 67.4466ZM202.424 81.8646L194.495 79.7403L192.022 88.9726L186.84 87.5843L192.99 64.6339L198.171 66.0222L195.711 75.2023L203.64 77.3267L206.1 68.1466L211.263 69.5302L205.114 92.4806L199.95 91.097L202.424 81.8646ZM213.651 70.1701L218.85 71.563L212.7 94.5134L207.502 93.1205L213.651 70.1701ZM221.024 72.1454L230.378 74.6518C231.711 75.009 232.824 75.6055 233.718 76.4414C234.612 77.2773 235.219 78.3034 235.54 79.5197C235.874 80.7275 235.848 82.0559 235.459 83.5048C235.071 84.9537 234.492 86.0719 233.722 86.8594C232.967 87.6384 232.168 88.1635 231.325 88.4346C230.485 88.6941 229.745 88.7879 229.106 88.716L232.139 99.722L226.297 98.1566L223.766 87.7136L222.514 87.3782L220.073 96.4888L214.874 95.0958L221.024 72.1454ZM223.478 83.7791L225.773 84.3941C226.701 84.6426 227.572 84.634 228.389 84.3682C229.206 84.1025 229.768 83.3959 230.075 82.2484C230.383 81.1009 230.253 80.2153 229.688 79.5916C229.125 78.9563 228.38 78.5144 227.453 78.2659L225.123 77.6417L223.478 83.7791ZM239.968 77.2216L254.625 81.1489L253.404 85.7042L243.929 83.1652L242.675 87.8422L252.064 90.3579L250.881 94.7741L241.492 92.2584L240.22 97.005L249.696 99.544L248.475 104.099L233.818 100.172L239.968 77.2216ZM261.935 99.6742L265.26 82.9549L270.963 84.483L265.482 100.625L261.935 99.6742ZM261.571 108.056C261.004 107.903 260.519 107.625 260.118 107.219C259.721 106.802 259.441 106.317 259.278 105.764C259.116 105.211 259.112 104.645 259.268 104.065C259.504 103.184 260.013 102.513 260.795 102.052C261.588 101.594 262.414 101.48 263.272 101.709C264.164 101.949 264.834 102.463 265.281 103.254C265.727 104.045 265.833 104.88 265.596 105.761C265.367 106.619 264.861 107.278 264.079 107.74C263.3 108.189 262.464 108.295 261.571 108.056Z" fill="black"/>
</svg>
