<svg width="800" height="800" viewBox="0 0 800 800" fill="none" xmlns="http://www.w3.org/2000/svg">
<path d="M669.516 698.992L678.087 690.465L611.408 624.201L602.812 632.729L669.516 698.992Z" fill="#212121"/>
<path d="M670.244 101.578L603.564 167.83L612.135 176.395L678.839 110.106L670.244 101.578Z" fill="#212121"/>
<path d="M800.57 394.106L706.277 394.094V394.292C685.905 389.327 654.582 345.544 632.982 296.261C613.036 267.492 597.174 192.341 609.503 179.208L612.134 176.395C609.327 173.767 606.495 171.166 603.564 168.664L600.382 172.075C588.053 185.27 553.748 191.881 492.233 169.012C434.523 150.289 410.017 122.492 407.136 93.6984V0H394.983V93.6984H395.86C395.558 93.7234 395.272 93.7375 394.983 93.75C390.197 125.119 361.807 141.987 312.817 158.681C268.415 177.889 214.352 185.27 202.037 172.075L201.084 171.055L201.51 170.644L134.831 104.38L126.236 112.92L192.916 179.183C205.268 192.341 182.002 269.447 173.607 286.314C139.29 348.345 108.983 389.513 93.4845 393.047H0.570312L0.582893 405.906L94.3133 405.919C111.603 413.412 146.884 455.202 168.158 503.677C188.105 532.445 203.992 607.583 191.637 620.753L190.26 622.223L189.833 621.8L123.141 688.062L131.749 696.602L198.428 630.352L200.758 627.861C213.087 614.653 247.392 608.067 308.909 630.911C366.567 649.622 391.061 677.381 393.994 706.138C395.008 706.175 396.01 706.225 397.013 706.3H393.994V800H406.133V706.3C410.857 674.856 439.285 657.962 488.348 641.256C532.724 622.062 586.775 614.655 599.104 627.863L602.888 631.897C605.794 629.406 608.601 626.792 611.406 624.203L608.198 620.755C595.871 607.584 619.125 530.492 627.544 513.611C661.648 451.928 688.661 410.488 707.178 406.953H800.569V394.106H800.57ZM409.179 143.916C414.378 137.617 444.685 171.228 487.158 185.244C515.687 194.106 558.661 199.797 560.064 205.895C561.668 212.692 554.487 221.158 547.986 228.091L545.631 230.619C533.326 243.777 510.373 249.105 494.612 242.456L435.15 217.247C419.39 210.587 406.546 189.289 406.546 169.944C406.548 162.055 405.557 148.286 409.179 143.916ZM476.395 392.698H440.112C423.386 392.698 419.764 381.944 432.093 368.761L450.736 348.844C463.066 335.661 480.006 338.698 488.374 355.541L491.618 362.064C499.976 378.906 493.134 392.698 476.395 392.698ZM490.303 437.911L487.095 444.384C483.223 452.177 479.377 462.547 473.138 464.191C465.884 466.12 456.074 458.178 449.47 451.095L430.815 431.166C418.46 418.008 422.068 407.239 438.821 407.239H475.117C491.83 407.237 498.698 421.019 490.303 437.911ZM441.015 299.722L435.152 297.256C419.391 290.572 406.548 269.247 406.548 249.852C406.548 241.4 405.131 229.461 409.179 225.092C414.403 219.377 426.256 222.914 435.152 226.686L488.325 249.167C497.095 252.902 507.77 258.167 508.096 265.648C508.346 271.598 499.94 279.43 494.515 285.242L492.022 287.919C479.729 301.053 456.752 306.381 441.015 299.722ZM408.514 304.763C413.775 299.147 426.179 302.895 434.899 306.578C442.817 309.903 452.54 315.131 453.567 321.728C454.533 328.191 446.976 336.031 440.887 342.567L428.959 355.277C416.631 368.458 406.546 363.294 406.546 343.823V329.969C406.548 321.381 404.417 309.181 408.514 304.763ZM427.658 444.645L439.587 457.392C445.75 463.964 455.198 470.227 454.107 476.725C453.017 483.247 441.441 490.07 433.647 493.369C425.679 496.73 415.531 501.125 410.368 496.642C405.406 492.334 405.244 479.475 405.244 469.964V456.109C405.244 436.63 415.329 431.475 427.658 444.645ZM433.848 502.68L439.711 500.216C447.58 496.88 459.431 491.552 468.678 493.692C477.95 495.858 484.554 505.481 490.729 512.053L493.186 514.692C505.54 527.85 502.746 544.083 487.021 550.731L433.848 573.263C425.991 576.611 414.905 581.269 409.729 577.073C404.555 572.866 405.244 559.808 405.244 550.084C405.244 530.689 418.11 509.366 433.848 502.68ZM500.052 505.133C487.723 491.975 484.478 467.414 492.835 450.547L499.124 437.913C507.481 421.02 528.041 407.239 544.767 407.239H557.059C573.797 407.239 580.638 421.02 572.256 437.913L540.645 501.636C535.934 511.12 529.12 522.936 521.328 523.209C515.289 523.445 508.409 514.084 503.01 508.334L500.052 505.133ZM558.336 392.698H546.044C529.293 392.698 508.77 378.906 500.377 362.064L494.137 349.391C485.743 332.548 488.988 307.963 501.304 294.791L504.31 291.58C516.638 278.422 533.553 281.458 541.948 298.327L573.569 362.027C581.94 378.906 575.074 392.698 558.336 392.698ZM260.623 192.016L367.294 146.866C375.149 143.53 385.61 139.722 390.773 143.916C395.985 148.123 395.897 160.272 395.897 169.945C395.897 189.291 383.004 210.591 367.292 217.248L307.818 242.419C292.068 249.105 269.116 243.777 256.8 230.594L254.456 228.092C242.104 214.922 244.898 198.703 260.623 192.016ZM309.51 437.873C301.153 421.019 308.007 407.239 324.746 407.239H361.029C377.755 407.239 381.362 418.008 369.047 431.166L350.404 451.094C338.077 464.277 321.124 461.239 312.767 444.384L309.51 437.873ZM299.801 505.133L296.857 508.32C284.503 521.517 267.564 518.478 259.195 501.611L227.573 437.913C219.216 421.02 226.069 407.239 242.808 407.239H255.1C271.826 407.239 292.373 421.02 300.729 437.873L307.019 450.547C315.4 467.389 312.154 491.975 299.801 505.133ZM362.32 392.698H326.012C309.31 392.698 302.444 378.906 310.814 362.027L314.033 355.541C317.905 347.747 321.789 337.403 328.002 335.747C335.257 333.819 345.054 341.747 351.67 348.844L370.351 368.761C382.654 381.944 379.046 392.698 362.32 392.698ZM308.307 349.391L302.031 362.027C293.661 378.906 273.101 392.698 256.375 392.698H244.071C227.345 392.698 220.516 378.906 228.886 362.027L260.497 298.302C265.208 288.83 272.049 277.002 279.829 276.717C285.855 276.517 292.721 285.842 298.121 291.58L301.116 294.791C313.42 307.961 316.664 332.548 308.307 349.391ZM147.06 362.027L207.023 241.177C212.26 230.631 220.378 218.32 229.125 219.18C234.324 219.678 240.037 229.511 244.661 234.466L247.554 237.553C259.871 250.723 263.128 275.334 254.746 292.189L220.103 362.027C211.733 378.906 191.161 392.698 174.436 392.698H162.27C145.53 392.698 138.678 378.906 147.06 362.027ZM205.745 558.748L145.769 437.911C137.387 421.019 144.228 407.237 160.967 407.237H173.132C189.859 407.237 210.431 421.019 218.788 437.872L253.481 507.745C261.851 524.625 258.592 549.211 246.252 562.358L243.359 565.47C231.029 578.641 214.089 575.641 205.745 558.748ZM391.976 656.02C386.739 662.331 356.481 628.747 313.983 614.692C285.456 605.855 242.481 600.139 241.077 594.041C239.499 587.256 246.653 578.78 253.154 571.845L255.485 569.319C267.813 556.184 290.766 550.833 306.514 557.481L366.014 582.689C381.726 589.348 394.58 610.648 394.58 629.981C394.582 637.897 395.584 651.652 391.976 656.02ZM391.976 574.869C386.701 580.558 374.886 577.034 366.015 573.263L312.817 550.769C304.047 547.022 293.397 541.781 293.047 534.288C292.797 528.363 301.215 520.483 306.653 514.694L309.122 512.019C321.438 498.859 344.391 493.533 360.128 500.217L366.015 502.706C381.727 509.366 394.582 530.691 394.582 550.084C394.582 558.498 396.022 570.475 391.976 574.869ZM392.627 495.175C387.365 500.777 374.962 497.042 366.203 493.37C358.347 490.009 348.6 484.805 347.573 478.208C346.595 471.747 354.164 463.905 360.253 457.394L372.18 444.647C384.509 431.477 394.582 436.631 394.582 456.112V469.967C394.582 478.544 396.724 490.755 392.627 495.175ZM395.898 343.825C395.898 363.295 385.799 368.459 373.484 355.278L361.556 342.542C355.392 335.983 345.957 329.708 347.047 323.209C348.111 316.688 359.714 309.891 367.494 306.578C375.462 303.205 385.61 298.811 390.773 303.281C395.708 307.575 395.897 320.447 395.897 329.97V343.825H395.898ZM395.898 249.852C395.898 269.247 383.006 290.57 367.294 297.256L361.381 299.722C353.562 303.058 341.711 308.361 332.439 306.245C323.204 304.08 316.565 294.481 310.388 287.895L307.956 285.244C295.629 272.073 298.398 255.841 314.108 249.194L367.294 226.688C375.149 223.339 386.225 218.67 391.437 222.853C396.612 227.072 395.898 240.167 395.898 249.852ZM540.52 607.894L433.848 653.07C425.991 656.406 415.543 660.214 410.369 656.02C405.195 651.825 405.246 639.677 405.246 629.98C405.246 610.647 418.113 589.348 433.85 582.688L493.313 557.517C509.074 550.833 532.015 556.184 544.343 569.342L546.686 571.844C559.037 585.014 556.242 601.248 540.52 607.894ZM654.082 437.911L594.119 558.748C588.906 569.292 580.763 581.616 572.042 580.756C566.806 580.259 561.103 570.425 556.482 565.47L553.575 562.358C541.26 549.211 538.014 524.627 546.384 507.745L581.063 437.909C589.407 421.017 609.98 407.236 626.694 407.236H638.872C655.634 407.238 662.452 421.019 654.082 437.911ZM640.199 392.698H627.996C611.257 392.698 590.711 378.906 582.34 362.064L547.686 292.191C539.291 275.336 542.523 250.725 554.877 237.555L557.785 234.467C570.113 221.297 587.028 224.298 595.422 241.178L655.361 362.028C663.754 378.906 656.888 392.698 640.199 392.698Z" fill="#212121"/>
</svg>
